<svg width="181" height="195" viewBox="0 0 181 195" fill="none" xmlns="http://www.w3.org/2000/svg">
<path d="M165.17 193.103C164.206 193.212 163.337 192.961 162.164 192.663C125.734 179.523 89.5707 166.474 53.4054 153.431C47.7412 151.389 45.1915 147.429 45.1794 140.536C45.1675 133.84 45.1949 127.143 45.1705 120.447C45.1286 108.938 37.0086 99.5488 27.0823 99.5122C22.9968 99.4972 18.9083 99.4 14.8266 99.5466C10.2426 99.7113 6.50163 97.7907 4.24178 92.9475C4.00012 92.582 3.91636 92.085 3.91563 91.8094C3.89397 83.5524 3.85281 75.3458 3.91547 66.7705C3.92293 65.7487 4.20319 65.4675 4.49111 64.8321C6.56294 60.26 9.73123 58.1398 14.0215 58.1687C18.042 58.1959 22.0632 58.2192 26.0832 58.1602C37.1314 57.998 45.1624 48.5277 45.1758 35.6886C45.1821 29.6898 45.1765 23.691 45.1756 17.6922C45.175 13.8469 46.1747 10.432 48.7125 7.88606C49.9524 6.6422 51.5638 5.13682 52.8631 4.55256C54.827 4.37806 56.5876 4.41473 58.4529 4.41224C76.4108 4.38827 94.3688 4.39102 112.327 4.40677C114.604 4.40877 116.88 4.52936 119.457 4.71784C120.747 4.94388 121.737 5.0471 122.883 5.19114C123.432 5.32697 123.823 5.43344 124.218 5.51536C142.023 9.21236 156.103 19.7291 166.514 36.8778C172.002 45.9177 175.27 56.045 177.01 67.068C177.269 69.3175 177.556 71.3665 177.842 73.4155C177.824 77.1679 177.805 80.9203 177.737 85.0522C177.467 87.5054 177.247 89.5789 176.974 91.8254C173.483 112.912 164.197 129.352 149.13 141.468C141.717 147.429 140.749 159.448 147.023 166.998C153.026 174.221 159.147 181.311 165.245 188.428C166.29 189.647 166.628 190.223 165.769 192.344C165.595 192.878 165.496 193.103 165.17 193.103ZM59.4422 112.572C82.5561 112.578 105.67 112.585 128.784 112.584C129.181 112.584 129.578 112.495 130.286 112.561C130.716 112.524 131.147 112.486 131.854 112.573C132.431 112.495 133.009 112.418 133.887 112.444C134.191 112.374 134.494 112.304 135.138 112.311C151.02 110.52 162.85 92.8349 160.417 74.5232C158.387 59.2486 147.224 46.8818 134.657 46.0123C134.434 46.0174 134.211 46.0226 133.624 45.9074C119.616 45.873 105.607 45.8208 91.5989 45.8098C80.2043 45.8008 68.8069 45.6674 57.4159 45.9121C47.4219 46.1269 39.4453 55.7166 39.2926 67.3448C39.1965 74.6684 39.1913 81.9967 39.2938 89.32C39.4677 101.752 47.8959 111.873 58.6092 112.52C58.7818 112.493 58.9543 112.465 59.4422 112.572Z" fill="white"/>
<path d="M129.716 111.996C129.319 112.044 129.127 112.584 128.73 112.584C105.616 112.585 81.5902 112.611 58.315 112.386C58.0001 111.988 58.6764 111.707 58.5229 111.529C59.3273 111.529 58.4116 112.124 58.315 112.386C47.8417 111.873 39.4135 101.752 39.2396 89.3201C39.1372 81.9968 39.1423 74.6685 39.2385 67.3449C39.3911 55.7167 47.3677 46.127 57.3617 45.9122C68.7527 45.6675 80.1501 45.8009 91.5447 45.8099C105.553 45.8209 119.562 45.8731 133.781 46.0883C134.255 46.2397 134.517 46.2103 134.779 46.1809C147.17 46.8819 158.332 59.2487 160.362 74.5233C162.796 92.835 150.965 110.52 134.887 112.118C131.526 112.932 133.695 111.367 133.532 112.341C132.954 112.418 128.946 112.723 128.218 112.584C127.764 112.1 130.32 111.529 130.32 112.23C130.097 112.602 127.102 112.23 129.716 111.996ZM77.621 69.4297C72.501 64.9382 66.238 65.3041 62.2062 70.3302C58.011 75.5601 58.2258 83.6695 62.6901 88.5963C67.1322 93.4986 74.1146 93.2762 78.4039 88.0957C82.6508 82.9663 82.4036 74.9542 77.621 69.4297ZM135.279 90.2177C139.218 87.2049 141.112 82.969 140.503 77.5163C139.917 72.2731 137.3 68.6765 133.027 66.9377C128.14 64.9486 122.874 67.2332 120.062 72.3253C117.379 77.1818 117.944 83.7522 121.416 88.079C124.915 92.4385 130.208 93.3369 135.279 90.2177Z" fill="#1E11E1E"/>
<path d="M77.7292 69.5435C82.4048 74.9542 82.6521 82.9663 78.4051 88.0957C74.1158 93.2761 67.1335 93.4985 62.6913 88.5962C58.227 83.6694 58.0122 75.56 62.2075 70.3302C66.2393 65.3041 72.5023 64.9382 77.7292 69.5435Z" fill="white"/>
<path d="M135.15 90.3032C130.208 93.3372 124.915 92.4388 121.417 88.0794C117.945 83.7526 117.378 76.692 120.06 71.8355C122.873 66.7434 128.141 64.9489 133.028 66.9381C137.3 68.6769 139.917 72.2735 140.503 77.5167C141.112 82.9693 139.218 87.2052 135.15 90.3032Z" fill="white"/>
</svg>
