<svg width="179" height="36" viewBox="0 0 179 36" fill="none" xmlns="http://www.w3.org/2000/svg">
<path d="M58.9958 18.565L66.7324 28H60.6941L52.9574 18.565H49.1205C47.9254 18.565 46.919 19.5714 46.919 20.7665V28H41.887V20.7665C41.887 16.7409 45.1578 13.533 49.1205 13.533H59.6877C60.8828 13.533 61.8892 12.5266 61.8892 11.3315C61.8892 10.1364 60.8828 9.13004 59.6877 9.13004H41.9499V4.09805H59.6877C63.6504 4.09805 66.9211 7.36884 66.9211 11.3315C66.9211 15.3571 63.6504 18.565 59.6877 18.565H58.9958ZM70.0814 18.1876V8.24944H74.736V18.1876C74.736 21.0181 77.0004 23.3454 79.8938 23.3454H87.253V8.24944H91.9076V28H79.8938C74.4844 28 70.0814 23.597 70.0814 18.1876ZM95.8202 28V3.34325H100.475V8.31234H108.274C113.747 8.31234 118.15 12.7153 118.15 18.1876C118.15 23.597 113.747 28 108.274 28H95.8202ZM100.475 12.9669V23.3454H108.274C111.168 23.3454 113.495 21.0181 113.495 18.1876C113.495 15.2942 111.168 12.9669 108.274 12.9669H100.475ZM143.2 18.1247V28H138.545V18.1247C138.545 15.2313 136.218 12.904 133.324 12.904H126.028V28H121.373V8.24944H133.324C138.797 8.24944 143.2 12.7153 143.2 18.1247ZM146.986 28V8.24944H151.641V28H146.986ZM146.986 6.17374V2.96585H151.641V6.17374H146.986ZM160.056 20.3891V28H155.402V3.40615H160.056V15.7345H162.635L171.756 8.24944H178.926L166.849 18.3763L178.926 28H171.441L161.817 20.3891H160.056Z" fill="white"/>
<g clip-path="url(#clip0_0_1)">
<path d="M34.9401 35.1997C34.7478 35.1622 34.5556 35.1247 34.3072 35.0704C26.5976 32.6785 18.9444 30.3032 11.2908 27.9291C10.0921 27.5573 9.55249 26.8365 9.54992 25.5817C9.54742 24.3628 9.55321 23.1438 9.54805 21.9249C9.53918 19.83 7.82075 18.1208 5.72005 18.1142C4.85545 18.1114 3.99019 18.0938 3.12639 18.1204C2.1563 18.1504 1.42086 17.791 0.942608 16.9093C0.891466 16.8428 0.865468 16.0765 0.865315 16.0263C0.86073 14.5233 0.837984 13.7334 0.851243 12.1724C0.852822 11.9864 0.804384 11.8154 0.865316 11.6998C1.30378 10.8675 2.04807 10.5832 2.95602 10.5884C3.80686 10.5934 4.65787 10.5976 5.50862 10.5869C7.84674 10.5573 9.54633 8.83348 9.54918 6.49638C9.5505 5.40442 9.54932 4.31246 9.54912 3.2205C9.54899 2.52053 9.76056 1.89892 10.2976 1.43548C10.56 1.20906 10.8805 1.05 11.1748 0.860445C11.5695 0.840469 11.9642 0.803593 12.359 0.803139C16.1594 0.798775 19.9598 0.799277 23.7602 0.802144C24.2421 0.802508 24.7239 0.824459 25.2693 0.858767C25.5422 0.899914 25.7517 0.918703 25.9943 0.944922C26.1105 0.969648 26.1932 0.989027 26.2767 1.00394C30.045 1.6769 33.0246 3.59127 35.2278 6.71285C36.3892 8.35837 37.0809 10.2018 37.4491 12.2084C37.504 12.6178 37.5646 12.9908 37.6253 13.3638C37.6214 14.0468 37.6175 14.7299 37.6029 15.482C37.5458 15.9286 37.4993 16.306 37.4414 16.715C36.7027 20.5534 34.7376 23.5459 31.5489 25.7514C29.9801 26.8365 29.7752 29.0243 31.103 30.3986C32.3734 31.7135 33.6689 33.0041 34.9592 34.2995C35.1804 34.5215 35.3161 34.7409 35.1068 35.0534C35.0353 35.1073 34.9877 35.1535 34.9401 35.1997ZM12.5684 20.4915C17.4599 20.4926 22.3515 20.4938 27.2431 20.4937C27.3271 20.4937 27.411 20.4775 27.561 20.4895C27.652 20.4827 27.7431 20.4759 27.8928 20.4916C28.015 20.4775 28.1371 20.4634 28.323 20.4682C28.3873 20.4554 28.4516 20.4426 28.5879 20.444C31.9488 20.118 34.4525 16.8987 33.9375 13.5654C33.5079 10.785 31.1455 8.53387 28.486 8.3756C28.4388 8.37653 28.3916 8.37747 28.2674 8.35651C25.3029 8.35024 22.3383 8.34073 19.3737 8.33873C16.9622 8.3371 14.5502 8.31281 12.1395 8.35736C10.0245 8.39645 8.33642 10.1421 8.30412 12.2587C8.28377 13.5919 8.28268 14.9258 8.30436 16.2589C8.34116 18.5219 10.1248 20.3642 12.3921 20.4821C12.4286 20.477 12.4651 20.472 12.5684 20.4915Z" fill="#F4F4F4"/>
<path d="M27.4518 20.3867C27.3679 20.3953 27.327 20.4937 27.2431 20.4937C22.3515 20.4938 17.267 20.4985 12.3412 20.4576C12.2746 20.3852 12.4177 20.3341 12.3852 20.3016C12.5555 20.3016 12.3617 20.4098 12.3412 20.4576C10.1248 20.3642 8.34114 18.5219 8.30433 16.2589C8.28265 14.9259 8.28375 13.5919 8.30409 12.2588C8.3364 10.1421 10.0245 8.39648 12.1395 8.35739C14.5502 8.31283 16.9622 8.33713 19.3736 8.33875C22.3382 8.34076 25.3028 8.35026 28.3121 8.38944C28.4123 8.41699 28.4678 8.41164 28.5233 8.40629C31.1455 8.53389 33.5078 10.785 33.9374 13.5655C34.4524 16.8987 31.9487 20.118 28.5461 20.4088C27.8349 20.5569 28.2939 20.2722 28.2593 20.4494C28.1371 20.4635 27.2889 20.5189 27.1348 20.4937C27.0388 20.4055 27.5795 20.3016 27.5795 20.4292C27.5323 20.4968 26.8985 20.4292 27.4518 20.3867ZM16.427 12.6383C15.3434 11.8207 14.018 11.8873 13.1647 12.8022C12.2769 13.7542 12.3224 15.2303 13.2671 16.1272C14.2072 17.0195 15.6849 16.979 16.5926 16.036C17.4914 15.1023 17.4391 13.6439 16.427 12.6383ZM28.6291 16.4223C29.4626 15.8739 29.8635 15.1028 29.7346 14.1103C29.6106 13.1559 29.0567 12.5012 28.1526 12.1847C27.1183 11.8226 26.0038 12.2384 25.4086 13.1654C24.8409 14.0494 24.9605 15.2454 25.6954 16.033C26.4357 16.8266 27.5559 16.9901 28.6291 16.4223Z" fill="#1E1E1E"/>
<path d="M16.4496 12.6589C17.4391 13.6438 17.4914 15.1023 16.5926 16.036C15.6849 16.979 14.2072 17.0195 13.2671 16.1271C12.3224 15.2303 12.2769 13.7541 13.1647 12.8021C14.018 11.8872 15.3434 11.8206 16.4496 12.6589Z" fill="white"/>
<path d="M28.6018 16.4378C27.556 16.9901 26.4358 16.8266 25.6954 16.033C24.9606 15.2454 24.841 14.0494 25.4087 13.1654C26.0039 12.2385 27.1184 11.8226 28.1526 12.1847C29.0568 12.5012 29.6106 13.1559 29.7346 14.1103C29.8636 15.1028 29.4627 15.8739 28.6018 16.4378Z" fill="white"/>
</g>
<defs>
<clipPath id="clip0_0_1">
<rect width="38.3049" height="35.4958" fill="white"/>
</clipPath>
</defs>
</svg>
